<svg width="40" height="40" viewBox="0 0 40 40" fill="none" xmlns="http://www.w3.org/2000/svg">
<path fill-rule="evenodd" clip-rule="evenodd" d="M21.9046 30.2113C21.0749 30.3638 20.4619 30.4401 20.0658 30.4401H18.6643C14.897 30.4401 11.9295 28.8117 9.7618 25.5549H7.77725C7.53058 25.4177 7.11199 24.5672 6.52148 23.0037V22.5461H8.50604L8.21452 20.1436V19.7775C8.43129 17.8707 8.62563 16.9173 8.79755 16.9173C9.74685 16.8716 10.3635 16.8487 10.6476 16.8487V16.6999H10.5691C10.0533 16.6999 9.26846 16.6733 8.21452 16.6199C8.21452 16.5436 8.46119 16.4444 8.95452 16.3224C9.90382 13.8894 11.3726 12.1123 13.3609 10.9911C14.1383 10.9911 14.8035 10.8157 15.3567 10.4648C16.6722 9.8623 18.3391 9.56104 20.3573 9.56104C22.1064 9.56104 23.7247 9.98815 25.2122 10.8424V10.911C24.9505 10.911 24.73 10.9377 24.5506 10.9911V11.0597C25.6569 11.5936 26.808 12.6958 28.004 14.3661C28.4824 14.3661 28.7776 14.5148 28.8897 14.8123C28.8897 14.8809 28.744 14.9572 28.4525 15.0411C28.4525 15.2699 27.6415 15.7466 26.0194 16.4711C25.2869 16.9669 24.7711 17.2148 24.4722 17.2148H23.8891L22.4876 15.4987C22.1288 15.308 21.9345 15.1555 21.9046 15.0411V14.9724H22.1961V14.8123C22.1288 14.8123 21.8111 14.6635 21.243 14.3661H20.9403C20.4844 14.3661 20.1181 14.2669 19.8415 14.0686H18.6643C18.5521 14.0686 18.455 14.0915 18.3727 14.1373L18.227 14.0686C16.5302 14.6101 15.4239 15.3118 14.9082 16.1737C14.7886 16.3186 14.4709 16.4177 13.9551 16.4711V16.5398C13.9701 16.6466 14.0187 16.6999 14.1009 16.6999C14.1981 16.6999 14.2467 16.6733 14.2467 16.6199L14.9867 16.6999H16.3097V16.7686C16.3097 16.8677 16.2611 16.9173 16.1639 16.9173H14.3924C14.1009 17.1156 13.8094 17.966 13.5179 19.4686V20.0749C13.5179 20.6851 13.6636 21.4859 13.9551 22.4774L13.8094 22.5461H13.0694L12.6321 22.6262C12.5349 22.5728 12.4602 22.5461 12.4079 22.5461L12.2621 22.6262C12.1649 22.5728 12.0902 22.5461 12.0379 22.5461V22.6262C12.3668 23.5795 13.0283 24.3804 14.0224 25.0287C14.5083 25.3795 14.8521 25.5549 15.0539 25.5549H16.8927C18.0438 25.9058 18.881 26.0812 19.4043 26.0812C20.4208 25.7304 21.0562 25.5549 21.3103 25.5549C21.4075 25.6083 21.4822 25.635 21.5346 25.635C22.6483 24.8723 23.2351 24.3956 23.2949 24.205C23.5789 23.999 23.9713 23.4728 24.4722 22.6262V22.5461H18.5858C18.4886 22.5461 18.44 22.4965 18.44 22.3974V20.3037C18.6867 20.1512 18.81 20.0253 18.81 19.9262L18.7427 19.7775C18.7876 19.6859 18.81 19.583 18.81 19.4686C18.5633 19.4076 18.44 19.3351 18.44 19.2512C18.5372 19.1215 18.5858 19.0453 18.5858 19.0224C18.6904 19.0224 18.7427 19.0491 18.7427 19.1025C19.3183 19.0491 19.7331 19.0224 19.9873 19.0224H27.6452C27.7498 19.0224 27.847 19.0491 27.9367 19.1025C28.0189 19.0491 28.1161 19.0224 28.2282 19.0224H29.5513L29.9997 19.5487V19.9948C29.7531 20.1321 29.6036 20.4601 29.5513 20.9787C29.5064 21.7109 29.484 22.2105 29.484 22.4774C29.7307 22.4774 29.854 22.527 29.854 22.6262V22.7062C29.2934 24.6588 28.8 25.635 28.374 25.635C28.2918 25.5816 28.1946 25.5549 28.0825 25.5549C26.9313 27.6753 24.872 29.2274 21.9046 30.2113ZM7.81879 16.821C7.62347 16.8805 7.51308 16.9102 7.48761 16.9102L7.39844 16.7318C7.41542 16.6214 7.47062 16.5661 7.56403 16.5661H7.81879V16.821ZM17.693 19.1234C17.7817 19.1234 17.826 19.0682 17.826 18.9578C17.826 18.8303 17.6044 18.7454 17.1611 18.7029C17.0247 18.7878 16.9564 18.8728 16.9564 18.9578C16.9564 19.0682 17.0008 19.1234 17.0894 19.1234H17.693ZM16.5213 19.3481V19.5138H16.2278C16.1336 19.5138 16.0865 19.4586 16.0865 19.3481C16.101 19.2377 16.1481 19.1825 16.2278 19.1825H16.38C16.4742 19.1995 16.5213 19.2547 16.5213 19.3481Z" fill="#6A6D7B"/>
<path d="M13.8035 21.9286C13.8894 21.9269 13.9581 21.926 14.0093 21.926L14.8939 22.1085C14.8939 21.9868 14.9564 21.926 15.0815 21.926C15.2066 21.926 15.3764 21.9868 15.5908 22.1085C15.8231 22.1085 15.9393 21.9868 15.9393 21.7435V21.4045H14.5454C14.2852 21.4045 13.9964 21.4022 13.679 21.3975C13.7146 21.5668 13.7561 21.7439 13.8035 21.9286Z" fill="#47D2F5"/>
<path d="M31.8353 21.6442H31.9117C31.9117 21.5337 31.9669 21.4785 32.0773 21.4785V21.402H31.9117L31.8353 21.5677V21.6442Z" fill="#47D2F5"/>
<path d="M16.5148 24.1046C16.5148 24.2685 16.4596 24.3504 16.3492 24.3504H16.26C16.1497 24.3504 16.0945 24.2685 16.0945 24.1046V23.7263C16.1114 23.5624 16.1666 23.4805 16.26 23.4805H16.3492C16.4596 23.5057 16.5148 23.5877 16.5148 23.7263V24.1046Z" fill="#47D2F5"/>
<path fill-rule="evenodd" clip-rule="evenodd" d="M25.0462 37.0539C23.0238 37.5746 21.1894 37.8349 19.543 37.8349H18.1429C17.1447 37.8349 16.4641 37.7438 16.1011 37.5615C15.9326 37.6526 15.8029 37.6982 15.7122 37.6982C11.9656 37.0605 9.02933 35.8175 6.90326 33.9693C5.25685 32.5767 3.93453 31.171 2.93632 29.7524C2.79371 29.6613 2.62518 29.6157 2.43072 29.6157H1.28342V29.3619H2.5474C2.5474 29.1016 2.63815 28.9715 2.81964 28.9715H4.47253L5.11424 28.8543C3.79193 26.3294 3.06595 24.0191 2.93632 21.9237V21.5332L3.07244 21.2794C3.15022 21.2794 3.18911 21.325 3.18911 21.4161C4.47253 21.325 5.41241 21.2794 6.00875 21.2794H7.91444V21.1428C7.91444 20.9736 7.83017 20.889 7.66164 20.889H3.07244C2.96872 20.889 2.75482 20.5896 2.43072 19.9909H0.252795C0.0842651 19.9909 0 19.9063 0 19.7371C0 19.5679 0.343542 19.4378 1.03063 19.3467V18.8391C0.93988 18.8391 0.810241 18.8 0.641711 18.7219C0.473181 18.8 0.343542 18.8391 0.252795 18.8391C0.175012 18.6699 0.136121 18.5397 0.136121 18.4486C0.382434 15.4811 1.48436 12.4941 3.44191 9.48759C4.19381 8.45939 4.88089 7.94529 5.50316 7.94529C6.60509 7.94529 7.15605 7.81513 7.15605 7.55483C6.87085 7.38563 6.61805 7.30103 6.39767 7.30103H6.26155L5.61983 7.41817L5.50316 7.16437L5.61983 6.91057C5.28277 6.91057 5.11424 6.82597 5.11424 6.65677C5.74947 6.09712 6.94215 5.28366 8.69227 4.21641H10.0924C12.374 2.84981 15.6992 2.1665 20.0681 2.1665C23.0886 2.1665 25.6425 2.81076 27.7297 4.09927C27.5741 4.17736 27.4056 4.21641 27.2241 4.21641V4.47021C27.5352 4.47021 28.7214 5.28366 30.7827 6.91057C31.2883 6.91057 31.8004 7.07977 32.3189 7.41817H33.7385L34.3607 7.55483V7.69149C34.3607 7.86069 34.2765 7.94529 34.1079 7.94529H33.4662C33.3884 7.94529 33.3495 7.89973 33.3495 7.80862C33.2069 7.89973 32.993 7.94529 32.7078 7.94529V8.06242C34.6394 10.223 36.0849 13.1319 37.0442 16.7892L36.6748 17.043H33.6023V17.1796C34.8598 17.1796 35.5858 17.2187 35.7803 17.2968C35.9229 17.2187 36.1368 17.1796 36.422 17.1796H36.6748C37.0118 17.1796 37.1804 17.9931 37.1804 19.62C37.2063 19.7892 37.2906 19.8738 37.4332 19.8738H38.7166C38.7944 19.8738 38.8333 19.9128 38.8333 19.9909L39.1055 19.8738H39.2222C39.7407 19.9258 40 20.0495 40 20.2447C40 23.0951 39.1898 25.9649 37.5693 28.8543L37.3165 28.9715H34.8858L34.3607 29.3619H33.0967C32.9282 29.3879 32.8439 29.4725 32.8439 29.6157C33.7773 29.6157 34.244 29.6613 34.244 29.7524C32.2606 33.0322 29.1946 35.4661 25.0462 37.0539ZM13.8485 33.0596C15.9393 33.6332 17.342 33.92 18.0568 33.92C18.7358 33.92 19.8527 33.7462 21.4074 33.3985C21.4074 33.1726 21.2912 33.0596 21.0589 33.0596H20.1744V32.7206H22.1043C22.2294 32.7206 23.0514 32.5468 24.5703 32.1991H26.3394C26.6074 32.1991 26.8397 32.147 27.0363 32.0427C27.2686 32.147 27.4473 32.1991 27.5724 32.1991C29.8776 31.2431 31.9326 29.1311 33.7374 25.8632C34.4343 23.5686 34.7828 22.2563 34.7828 21.926V20.5441C34.7828 20.3529 34.202 20.1877 33.0405 20.0487L32.692 20.2051H31.459C30.9765 20.2051 30.7353 19.0665 30.7353 16.7894L29.8776 16.6069H25.8146C25.8808 16.5639 25.949 16.5187 26.0192 16.4712C26.2897 16.3504 26.5376 16.2364 26.763 16.1294C27.1495 16.1175 27.4819 16.1115 27.76 16.1115H30.3868V15.929C29.2789 12.887 27.5188 10.549 25.1064 8.91507C22.4438 7.31587 20.2726 6.51627 18.5929 6.51627C13.6787 6.51627 9.68489 8.96722 6.61132 13.8691C5.78932 15.8855 5.37831 17.1979 5.37831 17.8063V18.1453L6.45049 18.8493V19.1882C6.45049 19.4142 6.3254 19.5272 6.07523 19.5272H5.21749V20.0487H8.21434V20.1436L8.50585 22.5461H6.5213V23.0037C7.11181 24.5673 7.5304 25.4177 7.77706 25.555H9.76161C9.90135 25.7649 10.0444 25.9681 10.1908 26.1645C10.9628 27.7114 12.057 29.158 13.4732 30.5043C14.7777 31.3735 15.43 31.8862 15.43 32.0427L15.0815 32.1991H12.6155L12.7763 32.5381V32.7206H11.731V33.0596H13.8485Z" fill="#47D2F5"/>
<path d="M2.17411 21.1263L1.90812 21.2155H0.434977V20.9607H1.90812C2.08545 20.9777 2.17411 21.0329 2.17411 21.1263Z" fill="#47D2F5"/>
<path d="M2.1741 25.4095L1.75405 25.6554H1.3119C1.1203 25.6554 0.97292 25.4095 0.869751 24.9178L1.15715 24.7854H2.04145L2.1741 25.4095Z" fill="#47D2F5"/>
</svg>
